<?xml version="1.0" encoding="UTF-8" standalone="no"?>
<svg
   xmlns:dc="http://purl.org/dc/elements/1.1/"
   xmlns:cc="http://creativecommons.org/ns#"
   xmlns:rdf="http://www.w3.org/1999/02/22-rdf-syntax-ns#"
   xmlns:svg="http://www.w3.org/2000/svg"
   xmlns="http://www.w3.org/2000/svg"
   xmlns:sodipodi="http://sodipodi.sourceforge.net/DTD/sodipodi-0.dtd"
   xmlns:inkscape="http://www.inkscape.org/namespaces/inkscape"
   version="1.0"
   width="76.000000pt"
   height="76.000000pt"
   viewBox="0 0 76.000000 76.000000"
   preserveAspectRatio="xMidYMid meet"
   id="svg2997"
   inkscape:version="0.48.4 r9939"
   sodipodi:docname="ddpick.svg">
  <defs
     id="defs3007" />
  <sodipodi:namedview
     pagecolor="#ffffff"
     bordercolor="#666666"
     borderopacity="1"
     objecttolerance="10"
     gridtolerance="10"
     guidetolerance="10"
     inkscape:pageopacity="0"
     inkscape:pageshadow="2"
     inkscape:window-width="1600"
     inkscape:window-height="838"
     id="namedview3005"
     showgrid="true"
     inkscape:zoom="2.5736842"
     inkscape:cx="42.353959"
     inkscape:cy="34.389627"
     inkscape:window-x="-8"
     inkscape:window-y="-8"
     inkscape:window-maximized="1"
     inkscape:current-layer="svg2997"
     showguides="true"
     inkscape:guide-bbox="true">
    <inkscape:grid
       type="xygrid"
       id="grid4350" />
  </sodipodi:namedview>
  <metadata
     id="metadata2999">
Created by potrace 1.10, written by Peter Selinger 2001-2011
<rdf:RDF>
  <cc:Work
     rdf:about="">
    <dc:format>image/svg+xml</dc:format>
    <dc:type
       rdf:resource="http://purl.org/dc/dcmitype/StillImage" />
    <dc:title></dc:title>
  </cc:Work>
</rdf:RDF>
</metadata>
  <text
     xml:space="preserve"
     style="font-size:56px;font-style:normal;font-weight:normal;line-height:125%;letter-spacing:0px;word-spacing:0px;fill:#000000;fill-opacity:1;stroke:none;font-family:Sans"
     x="47.985683"
     y="80.235176"
     id="text3039"
     sodipodi:linespacing="125%"
     transform="scale(0.8,0.8)"><tspan
       sodipodi:role="line"
       id="tspan3041" /></text>
  <text
     xml:space="preserve"
     style="font-size:56px;font-style:normal;font-weight:normal;line-height:125%;letter-spacing:0px;word-spacing:0px;fill:#000000;fill-opacity:1;stroke:none;font-family:Sans"
     x="28.558283"
     y="81.206543"
     id="text3051"
     sodipodi:linespacing="125%"
     transform="scale(0.8,0.8)"><tspan
       sodipodi:role="line"
       id="tspan3053" /></text>
  <path
     style="fill:#000000;fill-opacity:1"
     d=""
     id="path3227"
     inkscape:connector-curvature="0"
     transform="scale(0.8,0.8)" />
  <path
     style="fill:#000000;fill-opacity:1"
     d=""
     id="path3699"
     inkscape:connector-curvature="0"
     transform="scale(0.8,0.8)" />
  <path
     style="fill:#000000;fill-opacity:1"
     d=""
     id="path3701"
     inkscape:connector-curvature="0"
     transform="scale(0.8,0.8)" />
  <path
     style="opacity:0.99800014;fill:#ffffff;fill-opacity:1;fill-rule:nonzero;stroke:#000000;stroke-width:0.35999998;stroke-miterlimit:4;stroke-opacity:1;stroke-dasharray:none;stroke-dashoffset:0"
     d="M 29.828844,64.904078 C 20.187896,58.566533 20.34932,59.030117 27.762279,58.969246 l 4.478704,-0.03678 -0.204675,-6.111336 c -0.112571,-3.361233 -0.204674,-7.13792 -0.204674,-8.392638 l 0,-2.281302 -7.573292,0 -7.573291,0 -0.19767,1.442157 c -0.108718,0.793188 -0.19767,2.460273 -0.19767,3.704637 0,1.244368 -0.08329,2.479534 -0.185088,2.744816 -0.131002,0.341388 -1.20054,-0.763886 -3.660065,-3.782348 -7.4819263,-9.182229 -7.1285873,-8.687679 -6.6713443,-9.337517 0.227837,-0.323804 2.792162,-3.407001 5.6985013,-6.851548 l 5.284254,-6.262812 0.08624,4.353311 0.08624,4.353312 7.500736,0 7.500735,0 -0.203688,-5.82822 c -0.112029,-3.205522 -0.204083,-6.912271 -0.204566,-8.23722 l -8.8e-4,-2.408997 -4.429448,-0.03098 c -2.436196,-0.01704 -4.755986,-0.12279 -5.155087,-0.234995 -0.619661,-0.174216 0.446373,-1.003692 7.299139,-5.679422 7.924705,-5.4071275 8.034539,-5.4692295 8.807439,-4.9798515 0.430462,0.272557 4.235195,2.754581 8.454961,5.5156075 l 7.672305,5.020049 -1.42121,0.194798 c -0.781662,0.107139 -3.150152,0.194799 -5.263303,0.194799 l -3.842097,0 0,8.237218 0,8.237219 8.0818,0 8.081799,0 0,-1.973551 c 0,-1.085454 0.08913,-3.027982 0.198073,-4.316729 l 0.198069,-2.343177 5.132182,6.259469 c 2.822699,3.442708 5.263095,6.427819 5.423099,6.633581 0.203257,0.261379 -1.37952,2.378291 -5.252542,7.025108 -3.327768,3.99263 -5.634739,6.514269 -5.771831,6.308917 -0.125604,-0.188147 -0.230512,-2.147013 -0.233129,-4.353044 l -0.0047,-4.010957 -3.778863,0.203187 c -2.078375,0.111755 -5.575307,0.203189 -7.770961,0.203189 l -3.992098,0 0,8.353783 0,8.353783 0.97137,0.194274 c 0.534254,0.106851 3.006619,0.194274 5.494147,0.194274 l 4.522774,0 -8.311826,5.595092 c -4.571505,3.077301 -8.337738,5.589678 -8.369403,5.583059 -0.03166,-0.0066 -3.826314,-2.489439 -8.432551,-5.517382 l 0,0 z"
     id="path3201"
     inkscape:connector-curvature="0" />
</svg>
