<?xml version="1.0" encoding="UTF-8" standalone="no"?>
<svg
   xmlns:dc="http://purl.org/dc/elements/1.1/"
   xmlns:cc="http://creativecommons.org/ns#"
   xmlns:rdf="http://www.w3.org/1999/02/22-rdf-syntax-ns#"
   xmlns:svg="http://www.w3.org/2000/svg"
   xmlns="http://www.w3.org/2000/svg"
   xmlns:sodipodi="http://sodipodi.sourceforge.net/DTD/sodipodi-0.dtd"
   xmlns:inkscape="http://www.inkscape.org/namespaces/inkscape"
   version="1.0"
   width="76.000000pt"
   height="76.000000pt"
   viewBox="0 0 76.000000 76.000000"
   preserveAspectRatio="xMidYMid meet"
   id="svg2997"
   inkscape:version="0.48.4 r9939"
   sodipodi:docname="dlist.svg">
  <defs
     id="defs3007" />
  <sodipodi:namedview
     pagecolor="#ffffff"
     bordercolor="#666666"
     borderopacity="1"
     objecttolerance="10"
     gridtolerance="10"
     guidetolerance="10"
     inkscape:pageopacity="0"
     inkscape:pageshadow="2"
     inkscape:window-width="1600"
     inkscape:window-height="838"
     id="namedview3005"
     showgrid="true"
     inkscape:zoom="2.5736842"
     inkscape:cx="42.353959"
     inkscape:cy="34.389627"
     inkscape:window-x="-8"
     inkscape:window-y="-8"
     inkscape:window-maximized="1"
     inkscape:current-layer="svg2997"
     showguides="true"
     inkscape:guide-bbox="true">
    <inkscape:grid
       type="xygrid"
       id="grid4350" />
  </sodipodi:namedview>
  <metadata
     id="metadata2999">
Created by potrace 1.10, written by Peter Selinger 2001-2011
<rdf:RDF>
  <cc:Work
     rdf:about="">
    <dc:format>image/svg+xml</dc:format>
    <dc:type
       rdf:resource="http://purl.org/dc/dcmitype/StillImage" />
    <dc:title />
  </cc:Work>
</rdf:RDF>
</metadata>
  <text
     xml:space="preserve"
     style="font-size:56px;font-style:normal;font-weight:normal;line-height:125%;letter-spacing:0px;word-spacing:0px;fill:#000000;fill-opacity:1;stroke:none;font-family:Sans"
     x="47.985683"
     y="80.235176"
     id="text3039"
     sodipodi:linespacing="125%"
     transform="scale(0.8,0.8)"><tspan
       sodipodi:role="line"
       id="tspan3041" /></text>
  <text
     xml:space="preserve"
     style="font-size:56px;font-style:normal;font-weight:normal;line-height:125%;letter-spacing:0px;word-spacing:0px;fill:#000000;fill-opacity:1;stroke:none;font-family:Sans"
     x="28.558283"
     y="81.206543"
     id="text3051"
     sodipodi:linespacing="125%"
     transform="scale(0.8,0.8)"><tspan
       sodipodi:role="line"
       id="tspan3053" /></text>
  <path
     style="fill:#000000;fill-opacity:1"
     d=""
     id="path3227"
     inkscape:connector-curvature="0"
     transform="scale(0.8,0.8)" />
  <path
     style="fill:#000000;fill-opacity:1"
     d=""
     id="path3699"
     inkscape:connector-curvature="0"
     transform="scale(0.8,0.8)" />
  <path
     style="fill:#000000;fill-opacity:1"
     d=""
     id="path3701"
     inkscape:connector-curvature="0"
     transform="scale(0.8,0.8)" />
  <path
     style="opacity:0.99800014;fill:#ffffff;fill-opacity:1;fill-rule:nonzero;stroke:#000000;stroke-width:0.36000001;stroke-miterlimit:4;stroke-opacity:1;stroke-dasharray:none;stroke-dashoffset:0"
     d="m 12.694346,66.793832 c -2.536738,-0.702504 -4.6418567,-3.526584 -4.6418567,-6.227197 0,-1.847639 0.963649,-3.930138 2.3419317,-5.061052 2.224013,-1.824857 4.866405,-1.979052 7.26733,-0.424081 1.543783,0.999841 2.824283,3.42108 2.824283,5.340318 0,2.956343 -2.155816,5.79762 -4.879528,6.431032 -1.198971,0.278824 -1.731146,0.26804 -2.91216,-0.05901 z"
     id="path3098-1-4"
     inkscape:connector-curvature="0" />
  <path
     style="opacity:0.99800014;fill:#ffffff;fill-opacity:1;fill-rule:nonzero;stroke:#000000;stroke-width:0.35999998;stroke-miterlimit:4;stroke-opacity:1;stroke-dasharray:none;stroke-dashoffset:0"
     d="m 30.122024,59.946785 0,-5.595093 20.359919,0 20.359917,0 0,5.595093 0,5.595091 -20.359917,0 -20.359919,0 0,-5.595091 z"
     id="path3102-7-0"
     inkscape:connector-curvature="0" />
  <path
     style="opacity:0.99800014;fill:#ffffff;fill-opacity:1;fill-rule:nonzero;stroke:#000000;stroke-width:0.35999998;stroke-miterlimit:4;stroke-opacity:1;stroke-dasharray:none;stroke-dashoffset:0"
     d="m 57.268713,42.418323 -13.20384,-5.027054 -0.949378,1.399957 c -2.371346,3.496799 -5.924835,6.287441 -10.067196,7.906017 -3.464287,1.353667 -6.068835,1.731023 -9.790561,1.41862 C 19.439277,47.795343 14.009719,45.515538 11.207244,43.056 5.410312,37.968432 2.687635,30.409296 3.958269,22.930162 4.444418,20.068609 6.47262,15.548488 8.311639,13.22809 12.878417,7.4659249 19.610738,4.5930409 27.166823,5.1820159 c 6.04735,0.471374 12.102045,3.9162168 15.76472,8.9694071 2.44584,3.37438 4.104834,9.080471 3.931544,13.522495 l -0.04791,1.228045 13.318362,5.073043 c 11.874096,4.522916 13.300099,5.143551 13.149996,5.723246 -0.391065,1.510294 -2.48381,7.58275 -2.640335,7.661391 -0.09386,0.04717 -6.112377,-2.176438 -13.374489,-4.94132 l 0,0 z M 33.162709,37.100571 c 6.474081,-5.415766 6.334,-15.479176 -0.293194,-21.062496 -3.970753,-3.34531 -10.097995,-3.900829 -14.480638,-1.312871 -7.481186,4.41765 -8.484968,15.098121 -2.008267,21.368501 2.60243,2.51953 6.140504,3.898886 9.659981,3.766042 1.999821,-0.07548 5.565151,-1.456724 7.122117,-2.759178 l 3e-6,9e-6 z"
     id="path3171"
     inkscape:connector-curvature="0" />
</svg>
