<?xml version="1.0" encoding="UTF-8" standalone="no"?>
<svg
   xmlns:dc="http://purl.org/dc/elements/1.1/"
   xmlns:cc="http://creativecommons.org/ns#"
   xmlns:rdf="http://www.w3.org/1999/02/22-rdf-syntax-ns#"
   xmlns:svg="http://www.w3.org/2000/svg"
   xmlns="http://www.w3.org/2000/svg"
   xmlns:sodipodi="http://sodipodi.sourceforge.net/DTD/sodipodi-0.dtd"
   xmlns:inkscape="http://www.inkscape.org/namespaces/inkscape"
   version="1.0"
   width="76.000000pt"
   height="76.000000pt"
   viewBox="0 0 76.000000 76.000000"
   preserveAspectRatio="xMidYMid meet"
   id="svg2997"
   inkscape:version="0.48.4 r9939"
   sodipodi:docname="popup.svg">
  <defs
     id="defs3007" />
  <sodipodi:namedview
     pagecolor="#ffffff"
     bordercolor="#666666"
     borderopacity="1"
     objecttolerance="10"
     gridtolerance="10"
     guidetolerance="10"
     inkscape:pageopacity="0"
     inkscape:pageshadow="2"
     inkscape:window-width="1600"
     inkscape:window-height="838"
     id="namedview3005"
     showgrid="true"
     inkscape:zoom="2.5736842"
     inkscape:cx="42.353959"
     inkscape:cy="34.389627"
     inkscape:window-x="-8"
     inkscape:window-y="-8"
     inkscape:window-maximized="1"
     inkscape:current-layer="svg2997"
     showguides="true"
     inkscape:guide-bbox="true">
    <inkscape:grid
       type="xygrid"
       id="grid4350" />
  </sodipodi:namedview>
  <metadata
     id="metadata2999">
Created by potrace 1.10, written by Peter Selinger 2001-2011
<rdf:RDF>
  <cc:Work
     rdf:about="">
    <dc:format>image/svg+xml</dc:format>
    <dc:type
       rdf:resource="http://purl.org/dc/dcmitype/StillImage" />
    <dc:title></dc:title>
  </cc:Work>
</rdf:RDF>
</metadata>
  <text
     xml:space="preserve"
     style="font-size:56px;font-style:normal;font-weight:normal;line-height:125%;letter-spacing:0px;word-spacing:0px;fill:#000000;fill-opacity:1;stroke:none;font-family:Sans"
     x="47.985683"
     y="80.235176"
     id="text3039"
     sodipodi:linespacing="125%"
     transform="scale(0.8,0.8)"><tspan
       sodipodi:role="line"
       id="tspan3041" /></text>
  <text
     xml:space="preserve"
     style="font-size:56px;font-style:normal;font-weight:normal;line-height:125%;letter-spacing:0px;word-spacing:0px;fill:#000000;fill-opacity:1;stroke:none;font-family:Sans"
     x="28.558283"
     y="81.206543"
     id="text3051"
     sodipodi:linespacing="125%"
     transform="scale(0.8,0.8)"><tspan
       sodipodi:role="line"
       id="tspan3053" /></text>
  <path
     style="fill:#000000;fill-opacity:1"
     d=""
     id="path3227"
     inkscape:connector-curvature="0"
     transform="scale(0.8,0.8)" />
  <path
     style="fill:#000000;fill-opacity:1"
     d=""
     id="path3699"
     inkscape:connector-curvature="0"
     transform="scale(0.8,0.8)" />
  <path
     style="fill:#000000;fill-opacity:1"
     d=""
     id="path3701"
     inkscape:connector-curvature="0"
     transform="scale(0.8,0.8)" />
  <path
     style="opacity:0.99800014;fill:#ffffff;fill-opacity:1;fill-rule:nonzero;stroke:#000000;stroke-width:0.35999998;stroke-miterlimit:4;stroke-opacity:1;stroke-dasharray:none;stroke-dashoffset:0"
     d="m 3.8561728,48.053125 0,-24.245399 8.2372192,0 8.237219,0 0,-9.480573 0,-9.480573 26.265849,0 26.265849,0 0,24.245399 0,24.2454 -8.0818,0 -8.0818,0 0,9.480572 0,9.480572 -26.421268,0 -26.4212682,0 0,-24.245398 z m 46.2431662,12.04499 -0.08366,-6.916156 -14.687117,-0.08075 -14.687116,-0.08075 0,-11.639539 0,-11.63954 -5.440058,-0.09157 -5.4400572,-0.09157 3.84e-4,18.728017 3.85e-4,18.728016 20.2104462,0 20.210445,0 -0.08366,-6.916155 z m 16.160099,-30.773007 0.08016,-18.572597 -20.051527,0 -20.051525,0 0,18.443081 c 0,10.143696 0.09428,18.537359 0.209507,18.652587 0.11523,0.115232 9.102345,0.173514 19.971371,0.129518 l 19.761862,-0.07999 0.08016,-18.572598 z"
     id="path3162"
     inkscape:connector-curvature="0" />
  <path
     style="opacity:0.99800014;fill:#ffffff;fill-opacity:1;fill-rule:nonzero;stroke:#000000;stroke-width:0.35999998;stroke-miterlimit:4;stroke-opacity:1;stroke-dasharray:none;stroke-dashoffset:0"
     d="m 48.194897,27.457547 -2.318586,-2.179126 1.821567,-1.650961 c 1.001864,-0.90803 1.821571,-1.842544 1.821571,-2.0767 0,-0.234156 -0.863713,-1.242588 -1.919364,-2.240961 l -1.919366,-1.815223 2.367012,-2.196999 2.36701,-2.197 2.05211,1.86934 2.052111,1.869341 2.013014,-1.833727 2.013014,-1.833726 2.418372,2.145388 2.418372,2.145388 -2.026261,1.920717 -2.02626,1.920717 2.008218,1.899257 2.00822,1.899256 -2.237321,2.108328 -2.237321,2.10833 -1.852351,-1.687374 c -1.018793,-0.928054 -2.074218,-1.687373 -2.34539,-1.687373 -0.271171,0 -1.318055,0.830753 -2.32641,1.846117 l -1.833372,1.846118 -2.318589,-2.179127 0,0 z"
     id="path3252"
     inkscape:connector-curvature="0" />
</svg>
