<?xml version="1.0" encoding="UTF-8" standalone="no"?>
<svg
   xmlns:dc="http://purl.org/dc/elements/1.1/"
   xmlns:cc="http://creativecommons.org/ns#"
   xmlns:rdf="http://www.w3.org/1999/02/22-rdf-syntax-ns#"
   xmlns:svg="http://www.w3.org/2000/svg"
   xmlns="http://www.w3.org/2000/svg"
   xmlns:sodipodi="http://sodipodi.sourceforge.net/DTD/sodipodi-0.dtd"
   xmlns:inkscape="http://www.inkscape.org/namespaces/inkscape"
   version="1.0"
   width="76.000000pt"
   height="76.000000pt"
   viewBox="0 0 76.000000 76.000000"
   preserveAspectRatio="xMidYMid meet"
   id="svg2997"
   inkscape:version="0.48.4 r9939"
   sodipodi:docname="qr.svg">
  <defs
     id="defs3007" />
  <sodipodi:namedview
     pagecolor="#ffffff"
     bordercolor="#666666"
     borderopacity="1"
     objecttolerance="10"
     gridtolerance="10"
     guidetolerance="10"
     inkscape:pageopacity="0"
     inkscape:pageshadow="2"
     inkscape:window-width="1024"
     inkscape:window-height="706"
     id="namedview3005"
     showgrid="true"
     inkscape:zoom="2.5736842"
     inkscape:cx="42.353959"
     inkscape:cy="34.389627"
     inkscape:window-x="-8"
     inkscape:window-y="-8"
     inkscape:window-maximized="1"
     inkscape:current-layer="svg2997"
     showguides="true"
     inkscape:guide-bbox="true">
    <inkscape:grid
       type="xygrid"
       id="grid4350" />
  </sodipodi:namedview>
  <metadata
     id="metadata2999">
Created by potrace 1.10, written by Peter Selinger 2001-2011
<rdf:RDF>
  <cc:Work
     rdf:about="">
    <dc:format>image/svg+xml</dc:format>
    <dc:type
       rdf:resource="http://purl.org/dc/dcmitype/StillImage" />
    <dc:title></dc:title>
  </cc:Work>
</rdf:RDF>
</metadata>
  <text
     xml:space="preserve"
     style="font-size:56px;font-style:normal;font-weight:normal;line-height:125%;letter-spacing:0px;word-spacing:0px;fill:#000000;fill-opacity:1;stroke:none;font-family:Sans"
     x="47.985683"
     y="80.235176"
     id="text3039"
     sodipodi:linespacing="125%"
     transform="scale(0.8,0.8)"><tspan
       sodipodi:role="line"
       id="tspan3041" /></text>
  <text
     xml:space="preserve"
     style="font-size:56px;font-style:normal;font-weight:normal;line-height:125%;letter-spacing:0px;word-spacing:0px;fill:#000000;fill-opacity:1;stroke:none;font-family:Sans"
     x="28.558283"
     y="81.206543"
     id="text3051"
     sodipodi:linespacing="125%"
     transform="scale(0.8,0.8)"><tspan
       sodipodi:role="line"
       id="tspan3053" /></text>
  <path
     style="fill:#000000;fill-opacity:1"
     d=""
     id="path3227"
     inkscape:connector-curvature="0"
     transform="scale(0.8,0.8)" />
  <path
     style="fill:#000000;fill-opacity:1"
     d=""
     id="path3699"
     inkscape:connector-curvature="0"
     transform="scale(0.8,0.8)" />
  <path
     style="fill:#000000;fill-opacity:1"
     d=""
     id="path3701"
     inkscape:connector-curvature="0"
     transform="scale(0.8,0.8)" />
  <path
     style="opacity:0.99800014;fill:#ffffff;fill-opacity:1;fill-rule:nonzero;stroke:#000000;stroke-width:0.35999998;stroke-miterlimit:4;stroke-opacity:1;stroke-dasharray:none;stroke-dashoffset:0"
     d="m 5.0373597,20.264168 0,-14.6094078 15.2310883,0 15.23108,0 0,14.6094078 0,14.609407 -15.23108,0 -15.2310883,0 0,-14.609407 z m 25.2814483,9.84498 c 0.56429,-0.572904 0.69784,-4.832627 0.38807,-12.378056 l -0.30454,-7.41826 -10.17875,0 -10.178749,0 0,10.207106 0,10.207107 9.980329,-0.149905 c 5.48919,-0.08245 10.12132,-0.293045 10.29364,-0.467992 z"
     id="path3189"
     inkscape:connector-curvature="0" />
  <path
     style="opacity:0.99800014;fill:#ffffff;fill-opacity:1;fill-rule:nonzero;stroke:#000000;stroke-width:0.35999998;stroke-miterlimit:4;stroke-opacity:1;stroke-dasharray:none;stroke-dashoffset:0"
     d="m 14.051674,20.264167 0,-5.905931 6.372184,0 6.37219,0 0,5.905931 0,5.90593 -6.37219,0 -6.372184,0 0,-5.90593 z"
     id="path3191"
     inkscape:connector-curvature="0" />
  <path
     style="opacity:0.99800014;fill:#ffffff;fill-opacity:1;fill-rule:nonzero;stroke:#000000;stroke-width:0.35999998;stroke-miterlimit:4;stroke-opacity:1;stroke-dasharray:none;stroke-dashoffset:0"
     d="m 55.496799,64.880854 0,-2.009078 -2.072256,0 -2.072257,0 0,-2.009077 0,-2.009079 -3.696164,0 c -4.892091,0 -5.007312,-0.05646 -5.007312,-2.453883 l 0,-1.966088 4.351738,0 4.351738,0 0,-2.009077 0,-2.009078 2.279482,0 2.279483,0 0,3.817248 0,3.817247 2.072256,0 2.072256,0 0,4.419971 0,4.419971 -2.279483,0 -2.279481,0 0,-2.009077 z"
     id="path3215"
     inkscape:connector-curvature="0" />
  <path
     style="opacity:0.99800014;fill:#ffffff;fill-opacity:1;fill-rule:nonzero;stroke:#000000;stroke-width:0.35999998;stroke-miterlimit:4;stroke-opacity:1;stroke-dasharray:none;stroke-dashoffset:0"
     d="m 4.8737608,54.521837 0,-14.609408 15.2310882,0 15.23108,0 0,14.609408 0,14.609406 -15.23108,0 -15.2310882,0 0,-14.609406 z m 25.2814482,9.84498 c 0.56429,-0.572904 0.69784,-4.832627 0.38807,-12.378056 l -0.30454,-7.41826 -10.17875,0 -10.1787492,0 0,10.207106 0,10.207107 9.9803292,-0.149905 c 5.48919,-0.08245 10.12132,-0.293046 10.29364,-0.467992 z"
     id="path3189-8"
     inkscape:connector-curvature="0" />
  <path
     style="opacity:0.99800014;fill:#ffffff;fill-opacity:1;fill-rule:nonzero;stroke:#000000;stroke-width:0.35999998;stroke-miterlimit:4;stroke-opacity:1;stroke-dasharray:none;stroke-dashoffset:0"
     d="m 13.888075,54.521835 0,-5.90593 6.372184,0 6.37219,0 0,5.90593 0,5.905931 -6.37219,0 -6.372184,0 0,-5.905931 z"
     id="path3191-8"
     inkscape:connector-curvature="0" />
  <path
     style="opacity:0.99800014;fill:#ffffff;fill-opacity:1;fill-rule:nonzero;stroke:#000000;stroke-width:0.35999998;stroke-miterlimit:4;stroke-opacity:1;stroke-dasharray:none;stroke-dashoffset:0"
     d="m 40.538383,20.517747 0,-14.6094082 15.231088,0 15.23108,0 0,14.6094082 0,14.609406 -15.23108,0 -15.231088,0 0,-14.609406 z m 25.281448,9.84498 c 0.56429,-0.572904 0.69784,-4.832627 0.38807,-12.378056 l -0.30454,-7.41826 -10.17875,0 -10.178749,0 0,10.207106 0,10.207107 9.980329,-0.149905 c 5.48919,-0.08245 10.12132,-0.293046 10.29364,-0.467992 z"
     id="path3189-8-2"
     inkscape:connector-curvature="0" />
  <path
     style="opacity:0.99800014;fill:#ffffff;fill-opacity:1;fill-rule:nonzero;stroke:#000000;stroke-width:0.35999998;stroke-miterlimit:4;stroke-opacity:1;stroke-dasharray:none;stroke-dashoffset:0"
     d="m 49.552697,20.517745 0,-5.90593 6.372184,0 6.37219,0 0,5.90593 0,5.905931 -6.37219,0 -6.372184,0 0,-5.905931 z"
     id="path3191-8-4"
     inkscape:connector-curvature="0" />
  <path
     style="opacity:0.99800014;fill:#ffffff;fill-opacity:1;fill-rule:nonzero;stroke:#000000;stroke-width:0.35999998;stroke-miterlimit:4;stroke-opacity:1;stroke-dasharray:none;stroke-dashoffset:0"
     d="m 66.294345,52.987194 0,-2.009078 -2.072256,0 -2.072257,0 0,-2.009077 0,-2.009079 -3.696164,0 c -4.892091,0 -5.007312,-0.05646 -5.007312,-2.453883 l 0,-1.966088 4.351738,0 4.351738,0 0,-2.009077 0,-2.009078 2.279482,0 2.279483,0 0,3.817248 0,3.817247 2.072256,0 2.072256,0 0,4.419971 0,4.419971 -2.279483,0 -2.279481,0 0,-2.009077 z"
     id="path3215-5"
     inkscape:connector-curvature="0" />
</svg>
