<?xml version="1.0" encoding="UTF-8" standalone="no"?>
<svg
   xmlns:dc="http://purl.org/dc/elements/1.1/"
   xmlns:cc="http://creativecommons.org/ns#"
   xmlns:rdf="http://www.w3.org/1999/02/22-rdf-syntax-ns#"
   xmlns:svg="http://www.w3.org/2000/svg"
   xmlns="http://www.w3.org/2000/svg"
   xmlns:sodipodi="http://sodipodi.sourceforge.net/DTD/sodipodi-0.dtd"
   xmlns:inkscape="http://www.inkscape.org/namespaces/inkscape"
   version="1.0"
   width="76.000000pt"
   height="76.000000pt"
   viewBox="0 0 76.000000 76.000000"
   preserveAspectRatio="xMidYMid meet"
   id="svg2997"
   inkscape:version="0.48.4 r9939"
   sodipodi:docname="musicsign.svg">
  <defs
     id="defs3007" />
  <sodipodi:namedview
     pagecolor="#ffffff"
     bordercolor="#666666"
     borderopacity="1"
     objecttolerance="10"
     gridtolerance="10"
     guidetolerance="10"
     inkscape:pageopacity="0"
     inkscape:pageshadow="2"
     inkscape:window-width="1152"
     inkscape:window-height="802"
     id="namedview3005"
     showgrid="true"
     inkscape:zoom="2.5736842"
     inkscape:cx="42.353959"
     inkscape:cy="34.389627"
     inkscape:window-x="-8"
     inkscape:window-y="-8"
     inkscape:window-maximized="1"
     inkscape:current-layer="svg2997"
     showguides="true"
     inkscape:guide-bbox="true">
    <inkscape:grid
       type="xygrid"
       id="grid4350" />
  </sodipodi:namedview>
  <metadata
     id="metadata2999">
Created by potrace 1.10, written by Peter Selinger 2001-2011
<rdf:RDF>
  <cc:Work
     rdf:about="">
    <dc:format>image/svg+xml</dc:format>
    <dc:type
       rdf:resource="http://purl.org/dc/dcmitype/StillImage" />
    <dc:title></dc:title>
  </cc:Work>
</rdf:RDF>
</metadata>
  <text
     xml:space="preserve"
     style="font-size:56px;font-style:normal;font-weight:normal;line-height:125%;letter-spacing:0px;word-spacing:0px;fill:#000000;fill-opacity:1;stroke:none;font-family:Sans"
     x="47.985683"
     y="80.235176"
     id="text3039"
     sodipodi:linespacing="125%"
     transform="scale(0.8,0.8)"><tspan
       sodipodi:role="line"
       id="tspan3041" /></text>
  <text
     xml:space="preserve"
     style="font-size:56px;font-style:normal;font-weight:normal;line-height:125%;letter-spacing:0px;word-spacing:0px;fill:#000000;fill-opacity:1;stroke:none;font-family:Sans"
     x="28.558283"
     y="81.206543"
     id="text3051"
     sodipodi:linespacing="125%"
     transform="scale(0.8,0.8)"><tspan
       sodipodi:role="line"
       id="tspan3053" /></text>
  <path
     style="fill:#000000;fill-opacity:1"
     d=""
     id="path3227"
     inkscape:connector-curvature="0"
     transform="scale(0.8,0.8)" />
  <path
     style="fill:#000000;fill-opacity:1"
     d=""
     id="path3699"
     inkscape:connector-curvature="0"
     transform="scale(0.8,0.8)" />
  <path
     style="fill:#000000;fill-opacity:1"
     d=""
     id="path3701"
     inkscape:connector-curvature="0"
     transform="scale(0.8,0.8)" />
  <path
     style="opacity:0.71681417;fill:#ffffff;fill-opacity:1;fill-rule:nonzero;stroke:#000000;stroke-width:0.35999998;stroke-miterlimit:4;stroke-opacity:1;stroke-dasharray:none;stroke-dashoffset:0"
     d="m 18.350534,61.184635 c -1.797033,-0.548438 -2.591462,-1.052299 -3.593389,-2.279081 -1.232713,-1.509359 -1.841172,-4.584713 -1.270623,-6.422152 0.317904,-1.023798 1.464336,-2.440956 2.471937,-3.055676 1.391936,-0.849196 2.497673,-1.111065 5.487938,-1.299698 1.612619,-0.101726 2.854938,-0.300541 3.113833,-0.498318 0.426661,-0.32594 0.432003,-0.475018 0.562654,-15.702305 0.07679,-8.948861 0.217858,-15.732122 0.337587,-16.232028 0.421819,-1.761213 1.388655,-2.964178 3.000996,-3.73393 0.451019,-0.215321 4.246926,-0.301932 13.844547,-0.315886 14.659585,-0.02131 14.69569,-0.01779 15.910425,1.553282 0.352202,0.455527 0.744393,1.076622 0.871531,1.380213 0.36546,0.872683 0.314823,35.369253 -0.05475,37.292171 -0.563268,2.93082 -1.878444,4.474144 -4.81774,5.653505 -1.631816,0.654746 -2.085392,0.726427 -4.596737,0.726439 -3.235272,2.1e-5 -5.135246,-0.562423 -6.623211,-1.960648 -1.22512,-1.151235 -1.59855,-1.867404 -1.850429,-3.548777 -0.746654,-4.984162 2.206748,-7.740033 8.309136,-7.753404 2.24673,-0.005 2.994996,-0.295582 3.213044,-1.248081 0.08205,-0.358394 0.14936,-5.964977 0.149592,-12.459072 4.13e-4,-11.785334 -4.13e-4,-11.808474 -0.448209,-12.356758 -0.258075,-0.315994 -0.871616,-0.634461 -1.444485,-0.749776 -0.547718,-0.110251 -4.746362,-0.20724 -9.330322,-0.215524 -8.094247,-0.01462 -8.354505,9.7e-5 -9.029601,0.510965 -0.382322,0.289315 -0.710493,0.545184 -0.729267,0.568595 -0.01877,0.02341 -0.09379,8.002908 -0.166695,17.732214 -0.130143,17.367076 -0.140734,17.714989 -0.580832,19.079547 -0.890805,2.762006 -3.204444,4.922192 -5.933419,5.539885 -1.792701,0.405772 -5.130631,0.304852 -6.803523,-0.205702 z"
     id="path9778"
     inkscape:connector-curvature="0" />
</svg>
